solid CATIA STL
  facet normal  0.000000e+000  -0.000000e+000  1.000000e+000
    outer loop
      vertex -2.750000e+002 -5.250000e+001  5.000000e+000
      vertex -1.229417e-002 -5.250000e+001  5.000000e+000
      vertex  2.801450e+001 -5.171749e+001  5.000000e+000
    endloop
  endfacet
  facet normal  0.000000e+000  -0.000000e+000  1.000000e+000
    outer loop
      vertex -2.750000e+002 -5.250000e+001  5.000000e+000
      vertex  2.801450e+001 -5.171749e+001  5.000000e+000
      vertex  5.568656e+001 -4.937053e+001  5.000000e+000
    endloop
  endfacet
  facet normal  0.000000e+000  -0.000000e+000  9.999999e-001
    outer loop
      vertex -2.750000e+002 -5.250000e+001  5.000000e+000
      vertex  5.568656e+001 -4.937053e+001  5.000000e+000
      vertex  8.300988e+001 -4.546210e+001  5.000000e+000
    endloop
  endfacet
  facet normal  0.000000e+000  -0.000000e+000  1.000000e+000
    outer loop
      vertex -2.750000e+002 -5.250000e+001  5.000000e+000
      vertex  8.300988e+001 -4.546210e+001  5.000000e+000
      vertex  1.100000e+002 -4.000000e+001  5.000000e+000
    endloop
  endfacet
  facet normal  0.000000e+000  -0.000000e+000  1.000000e+000
    outer loop
      vertex -2.750000e+002 -5.250000e+001  5.000000e+000
      vertex  1.100000e+002 -4.000000e+001  5.000000e+000
      vertex  1.333214e+002 -3.396959e+001  5.000000e+000
    endloop
  endfacet
  facet normal  0.000000e+000  -0.000000e+000  9.999999e-001
    outer loop
      vertex -2.750000e+002 -5.250000e+001  5.000000e+000
      vertex  1.333214e+002 -3.396959e+001  5.000000e+000
      vertex  1.564170e+002 -2.676233e+001  5.000000e+000
    endloop
  endfacet
  facet normal  0.000000e+000  -0.000000e+000  1.000000e+000
    outer loop
      vertex -2.750000e+002 -5.250000e+001  5.000000e+000
      vertex  1.564170e+002 -2.676233e+001  5.000000e+000
      vertex  1.792025e+002 -1.830611e+001  5.000000e+000
    endloop
  endfacet
  facet normal  0.000000e+000  -0.000000e+000  1.000000e+000
    outer loop
      vertex -2.750000e+002 -5.250000e+001  5.000000e+000
      vertex  1.792025e+002 -1.830611e+001  5.000000e+000
      vertex  1.972241e+002 -1.041356e+001  5.000000e+000
    endloop
  endfacet
  facet normal  0.000000e+000  -0.000000e+000  9.999999e-001
    outer loop
      vertex -2.750000e+002 -5.250000e+001  5.000000e+000
      vertex  1.972241e+002 -1.041356e+001  5.000000e+000
      vertex  2.060175e+002 -6.051287e+000  5.000000e+000
    endloop
  endfacet
  facet normal  0.000000e+000  -0.000000e+000  1.000000e+000
    outer loop
      vertex -2.750000e+002 -5.250000e+001  5.000000e+000
      vertex  2.060175e+002 -6.051287e+000  5.000000e+000
      vertex  2.146175e+002 -1.374496e+000  5.000000e+000
    endloop
  endfacet
  facet normal  0.000000e+000  -0.000000e+000  1.000000e+000
    outer loop
      vertex -2.750000e+002 -5.250000e+001  5.000000e+000
      vertex  2.146175e+002 -1.374496e+000  5.000000e+000
      vertex  2.229869e+002  3.645008e+000  5.000000e+000
    endloop
  endfacet
  facet normal  0.000000e+000  -0.000000e+000  1.000000e+000
    outer loop
      vertex -2.750000e+002 -5.250000e+001  5.000000e+000
      vertex  2.229869e+002  3.645008e+000  5.000000e+000
      vertex  2.310915e+002  9.033281e+000  5.000000e+000
    endloop
  endfacet
  facet normal  0.000000e+000  -0.000000e+000  1.000000e+000
    outer loop
      vertex -2.750000e+002 -5.250000e+001  5.000000e+000
      vertex  2.310915e+002  9.033281e+000  5.000000e+000
      vertex  2.432665e+002  1.833059e+001  5.000000e+000
    endloop
  endfacet
  facet normal  0.000000e+000  -0.000000e+000  1.000000e+000
    outer loop
      vertex -2.750000e+002 -5.250000e+001  5.000000e+000
      vertex  2.432665e+002  1.833059e+001  5.000000e+000
      vertex  2.546361e+002  2.865676e+001  5.000000e+000
    endloop
  endfacet
  facet normal  0.000000e+000  -0.000000e+000  9.999999e-001
    outer loop
      vertex -2.750000e+002 -5.250000e+001  5.000000e+000
      vertex  2.546361e+002  2.865676e+001  5.000000e+000
      vertex  2.651597e+002  4.004261e+001  5.000000e+000
    endloop
  endfacet
  facet normal  0.000000e+000  -0.000000e+000  9.999999e-001
    outer loop
      vertex -2.750000e+002 -5.250000e+001  5.000000e+000
      vertex  2.651597e+002  4.004261e+001  5.000000e+000
      vertex  2.748218e+002  5.250000e+001  5.000000e+000
    endloop
  endfacet
  facet normal  0.000000e+000  0.000000e+000  1.000000e+000
    outer loop
      vertex -2.750000e+002 -5.250000e+001  5.000000e+000
      vertex  2.748218e+002  5.250000e+001  5.000000e+000
      vertex -2.750000e+002  5.250000e+001  5.000000e+000
    endloop
  endfacet
  facet normal  0.000000e+000  0.000000e+000 -1.000000e+000
    outer loop
      vertex -2.750000e+002 -5.250000e+001 -5.000000e+000
      vertex -2.750000e+002  5.250000e+001 -5.000000e+000
      vertex  2.748218e+002  5.250000e+001 -5.000000e+000
    endloop
  endfacet
  facet normal  0.000000e+000  0.000000e+000 -9.999999e-001
    outer loop
      vertex -2.750000e+002 -5.250000e+001 -5.000000e+000
      vertex  2.748218e+002  5.250000e+001 -5.000000e+000
      vertex  2.651597e+002  4.004261e+001 -5.000000e+000
    endloop
  endfacet
  facet normal  0.000000e+000  0.000000e+000 -1.000000e+000
    outer loop
      vertex -2.750000e+002 -5.250000e+001 -5.000000e+000
      vertex  2.651597e+002  4.004261e+001 -5.000000e+000
      vertex  2.546361e+002  2.865676e+001 -5.000000e+000
    endloop
  endfacet
  facet normal  0.000000e+000  0.000000e+000 -1.000000e+000
    outer loop
      vertex -2.750000e+002 -5.250000e+001 -5.000000e+000
      vertex  2.546361e+002  2.865676e+001 -5.000000e+000
      vertex  2.432665e+002  1.833059e+001 -5.000000e+000
    endloop
  endfacet
  facet normal  0.000000e+000  0.000000e+000 -9.999999e-001
    outer loop
      vertex -2.750000e+002 -5.250000e+001 -5.000000e+000
      vertex  2.432665e+002  1.833059e+001 -5.000000e+000
      vertex  2.310915e+002  9.033281e+000 -5.000000e+000
    endloop
  endfacet
  facet normal  0.000000e+000  0.000000e+000 -1.000000e+000
    outer loop
      vertex -2.750000e+002 -5.250000e+001 -5.000000e+000
      vertex  2.310915e+002  9.033281e+000 -5.000000e+000
      vertex  2.229869e+002  3.645008e+000 -5.000000e+000
    endloop
  endfacet
  facet normal  0.000000e+000  0.000000e+000 -1.000000e+000
    outer loop
      vertex -2.750000e+002 -5.250000e+001 -5.000000e+000
      vertex  2.229869e+002  3.645008e+000 -5.000000e+000
      vertex  2.146175e+002 -1.374496e+000 -5.000000e+000
    endloop
  endfacet
  facet normal  0.000000e+000  0.000000e+000 -1.000000e+000
    outer loop
      vertex -2.750000e+002 -5.250000e+001 -5.000000e+000
      vertex  2.146175e+002 -1.374496e+000 -5.000000e+000
      vertex  2.060175e+002 -6.051287e+000 -5.000000e+000
    endloop
  endfacet
  facet normal  0.000000e+000  0.000000e+000 -1.000000e+000
    outer loop
      vertex -2.750000e+002 -5.250000e+001 -5.000000e+000
      vertex  2.060175e+002 -6.051287e+000 -5.000000e+000
      vertex  1.972241e+002 -1.041356e+001 -5.000000e+000
    endloop
  endfacet
  facet normal  0.000000e+000  0.000000e+000 -1.000000e+000
    outer loop
      vertex -2.750000e+002 -5.250000e+001 -5.000000e+000
      vertex  1.972241e+002 -1.041356e+001 -5.000000e+000
      vertex  1.792025e+002 -1.830611e+001 -5.000000e+000
    endloop
  endfacet
  facet normal  0.000000e+000  0.000000e+000 -1.000000e+000
    outer loop
      vertex -2.750000e+002 -5.250000e+001 -5.000000e+000
      vertex  1.792025e+002 -1.830611e+001 -5.000000e+000
      vertex  1.564170e+002 -2.676233e+001 -5.000000e+000
    endloop
  endfacet
  facet normal  0.000000e+000  0.000000e+000 -1.000000e+000
    outer loop
      vertex -2.750000e+002 -5.250000e+001 -5.000000e+000
      vertex  1.564170e+002 -2.676233e+001 -5.000000e+000
      vertex  1.333214e+002 -3.396959e+001 -5.000000e+000
    endloop
  endfacet
  facet normal  0.000000e+000  0.000000e+000 -9.999999e-001
    outer loop
      vertex -2.750000e+002 -5.250000e+001 -5.000000e+000
      vertex  1.333214e+002 -3.396959e+001 -5.000000e+000
      vertex  1.100000e+002 -4.000000e+001 -5.000000e+000
    endloop
  endfacet
  facet normal  0.000000e+000  0.000000e+000 -9.999999e-001
    outer loop
      vertex -2.750000e+002 -5.250000e+001 -5.000000e+000
      vertex  1.100000e+002 -4.000000e+001 -5.000000e+000
      vertex  8.300988e+001 -4.546210e+001 -5.000000e+000
    endloop
  endfacet
  facet normal  0.000000e+000  0.000000e+000 -1.000000e+000
    outer loop
      vertex -2.750000e+002 -5.250000e+001 -5.000000e+000
      vertex  8.300988e+001 -4.546210e+001 -5.000000e+000
      vertex  5.568656e+001 -4.937053e+001 -5.000000e+000
    endloop
  endfacet
  facet normal  0.000000e+000  0.000000e+000 -1.000000e+000
    outer loop
      vertex -2.750000e+002 -5.250000e+001 -5.000000e+000
      vertex  5.568656e+001 -4.937053e+001 -5.000000e+000
      vertex  2.801450e+001 -5.171749e+001 -5.000000e+000
    endloop
  endfacet
  facet normal  0.000000e+000  0.000000e+000 -1.000000e+000
    outer loop
      vertex -2.750000e+002 -5.250000e+001 -5.000000e+000
      vertex  2.801450e+001 -5.171749e+001 -5.000000e+000
      vertex -1.229417e-002 -5.250000e+001 -5.000000e+000
    endloop
  endfacet
  facet normal  0.000000e+000  1.000000e+000  0.000000e+000
    outer loop
      vertex -2.750000e+002  5.250000e+001  5.000000e+000
      vertex  2.748218e+002  5.250000e+001  5.000000e+000
      vertex -2.750000e+002  5.250000e+001 -5.000000e+000
    endloop
  endfacet
  facet normal  0.000000e+000  1.000000e+000  0.000000e+000
    outer loop
      vertex -2.750000e+002  5.250000e+001 -5.000000e+000
      vertex  2.748218e+002  5.250000e+001  5.000000e+000
      vertex  2.748218e+002  5.250000e+001 -5.000000e+000
    endloop
  endfacet
  facet normal  7.901796e-001 -6.128755e-001  0.000000e+000
    outer loop
      vertex  2.748218e+002  5.250000e+001 -5.000000e+000
      vertex  2.748218e+002  5.250000e+001  5.000000e+000
      vertex  2.651597e+002  4.004261e+001 -5.000000e+000
    endloop
  endfacet
  facet normal  7.901796e-001 -6.128755e-001  0.000000e+000
    outer loop
      vertex  2.651597e+002  4.004261e+001 -5.000000e+000
      vertex  2.748218e+002  5.250000e+001  5.000000e+000
      vertex  2.651597e+002  4.004261e+001  5.000000e+000
    endloop
  endfacet
  facet normal  7.343661e-001 -6.787537e-001  0.000000e+000
    outer loop
      vertex  2.651597e+002  4.004261e+001 -5.000000e+000
      vertex  2.651597e+002  4.004261e+001  5.000000e+000
      vertex  2.546361e+002  2.865676e+001 -5.000000e+000
    endloop
  endfacet
  facet normal  7.343661e-001 -6.787537e-001  0.000000e+000
    outer loop
      vertex  2.546361e+002  2.865676e+001 -5.000000e+000
      vertex  2.651597e+002  4.004261e+001  5.000000e+000
      vertex  2.546361e+002  2.865676e+001  5.000000e+000
    endloop
  endfacet
  facet normal  6.723234e-001 -7.402575e-001  0.000000e+000
    outer loop
      vertex  2.546361e+002  2.865676e+001 -5.000000e+000
      vertex  2.546361e+002  2.865676e+001  5.000000e+000
      vertex  2.432665e+002  1.833059e+001 -5.000000e+000
    endloop
  endfacet
  facet normal  6.723234e-001 -7.402575e-001  0.000000e+000
    outer loop
      vertex  2.432665e+002  1.833059e+001 -5.000000e+000
      vertex  2.546361e+002  2.865676e+001  5.000000e+000
      vertex  2.432665e+002  1.833059e+001  5.000000e+000
    endloop
  endfacet
  facet normal  6.069155e-001 -7.947664e-001  0.000000e+000
    outer loop
      vertex  2.432665e+002  1.833059e+001 -5.000000e+000
      vertex  2.432665e+002  1.833059e+001  5.000000e+000
      vertex  2.310915e+002  9.033281e+000 -5.000000e+000
    endloop
  endfacet
  facet normal  6.069155e-001 -7.947664e-001  0.000000e+000
    outer loop
      vertex  2.310915e+002  9.033281e+000 -5.000000e+000
      vertex  2.432665e+002  1.833059e+001  5.000000e+000
      vertex  2.310915e+002  9.033281e+000  5.000000e+000
    endloop
  endfacet
  facet normal  5.536453e-001 -8.327526e-001  0.000000e+000
    outer loop
      vertex  2.310915e+002  9.033281e+000 -5.000000e+000
      vertex  2.310915e+002  9.033281e+000  5.000000e+000
      vertex  2.229869e+002  3.645008e+000 -5.000000e+000
    endloop
  endfacet
  facet normal  5.536453e-001 -8.327526e-001  0.000000e+000
    outer loop
      vertex  2.229869e+002  3.645008e+000 -5.000000e+000
      vertex  2.310915e+002  9.033281e+000  5.000000e+000
      vertex  2.229869e+002  3.645008e+000  5.000000e+000
    endloop
  endfacet
  facet normal  5.143348e-001 -8.575894e-001  0.000000e+000
    outer loop
      vertex  2.229869e+002  3.645008e+000 -5.000000e+000
      vertex  2.229869e+002  3.645008e+000  5.000000e+000
      vertex  2.146175e+002 -1.374496e+000 -5.000000e+000
    endloop
  endfacet
  facet normal  5.143348e-001 -8.575894e-001  0.000000e+000
    outer loop
      vertex  2.146175e+002 -1.374496e+000 -5.000000e+000
      vertex  2.229869e+002  3.645008e+000  5.000000e+000
      vertex  2.146175e+002 -1.374496e+000  5.000000e+000
    endloop
  endfacet
  facet normal  4.777432e-001 -8.784995e-001  0.000000e+000
    outer loop
      vertex  2.146175e+002 -1.374496e+000 -5.000000e+000
      vertex  2.146175e+002 -1.374496e+000  5.000000e+000
      vertex  2.060175e+002 -6.051287e+000 -5.000000e+000
    endloop
  endfacet
  facet normal  4.777432e-001 -8.784995e-001  0.000000e+000
    outer loop
      vertex  2.060175e+002 -6.051287e+000 -5.000000e+000
      vertex  2.146175e+002 -1.374496e+000  5.000000e+000
      vertex  2.060175e+002 -6.051287e+000  5.000000e+000
    endloop
  endfacet
  facet normal  4.444034e-001 -8.958268e-001  0.000000e+000
    outer loop
      vertex  2.060175e+002 -6.051287e+000 -5.000000e+000
      vertex  2.060175e+002 -6.051287e+000  5.000000e+000
      vertex  1.972241e+002 -1.041356e+001 -5.000000e+000
    endloop
  endfacet
  facet normal  4.444034e-001 -8.958268e-001  0.000000e+000
    outer loop
      vertex  1.972241e+002 -1.041356e+001 -5.000000e+000
      vertex  2.060175e+002 -6.051287e+000  5.000000e+000
      vertex  1.972241e+002 -1.041356e+001  5.000000e+000
    endloop
  endfacet
  facet normal  4.011649e-001 -9.160058e-001  0.000000e+000
    outer loop
      vertex  1.972241e+002 -1.041356e+001 -5.000000e+000
      vertex  1.972241e+002 -1.041356e+001  5.000000e+000
      vertex  1.792025e+002 -1.830611e+001 -5.000000e+000
    endloop
  endfacet
  facet normal  4.011649e-001 -9.160058e-001  0.000000e+000
    outer loop
      vertex  1.792025e+002 -1.830611e+001 -5.000000e+000
      vertex  1.972241e+002 -1.041356e+001  5.000000e+000
      vertex  1.792025e+002 -1.830611e+001  5.000000e+000
    endloop
  endfacet
  facet normal  3.479339e-001 -9.375191e-001  0.000000e+000
    outer loop
      vertex  1.792025e+002 -1.830611e+001 -5.000000e+000
      vertex  1.792025e+002 -1.830611e+001  5.000000e+000
      vertex  1.564170e+002 -2.676233e+001 -5.000000e+000
    endloop
  endfacet
  facet normal  3.479339e-001 -9.375191e-001  0.000000e+000
    outer loop
      vertex  1.564170e+002 -2.676233e+001 -5.000000e+000
      vertex  1.792025e+002 -1.830611e+001  5.000000e+000
      vertex  1.564170e+002 -2.676233e+001  5.000000e+000
    endloop
  endfacet
  facet normal  2.978944e-001 -9.545988e-001  0.000000e+000
    outer loop
      vertex  1.564170e+002 -2.676233e+001 -5.000000e+000
      vertex  1.564170e+002 -2.676233e+001  5.000000e+000
      vertex  1.333214e+002 -3.396959e+001 -5.000000e+000
    endloop
  endfacet
  facet normal  2.978944e-001 -9.545988e-001  0.000000e+000
    outer loop
      vertex  1.333214e+002 -3.396959e+001 -5.000000e+000
      vertex  1.564170e+002 -2.676233e+001  5.000000e+000
      vertex  1.333214e+002 -3.396959e+001  5.000000e+000
    endloop
  endfacet
  facet normal  2.503445e-001 -9.681569e-001  0.000000e+000
    outer loop
      vertex  1.333214e+002 -3.396959e+001 -5.000000e+000
      vertex  1.333214e+002 -3.396959e+001  5.000000e+000
      vertex  1.100000e+002 -4.000000e+001 -5.000000e+000
    endloop
  endfacet
  facet normal  2.503445e-001 -9.681569e-001  0.000000e+000
    outer loop
      vertex  1.100000e+002 -4.000000e+001 -5.000000e+000
      vertex  1.333214e+002 -3.396959e+001  5.000000e+000
      vertex  1.100000e+002 -4.000000e+001  5.000000e+000
    endloop
  endfacet
  facet normal  1.983529e-001 -9.801307e-001  0.000000e+000
    outer loop
      vertex  1.100000e+002 -4.000000e+001 -5.000000e+000
      vertex  1.100000e+002 -4.000000e+001  5.000000e+000
      vertex  8.300988e+001 -4.546210e+001 -5.000000e+000
    endloop
  endfacet
  facet normal  1.983529e-001 -9.801307e-001  0.000000e+000
    outer loop
      vertex  8.300988e+001 -4.546210e+001 -5.000000e+000
      vertex  1.100000e+002 -4.000000e+001  5.000000e+000
      vertex  8.300988e+001 -4.546210e+001  5.000000e+000
    endloop
  endfacet
  facet normal  1.416023e-001 -9.899237e-001  0.000000e+000
    outer loop
      vertex  8.300988e+001 -4.546210e+001 -5.000000e+000
      vertex  8.300988e+001 -4.546210e+001  5.000000e+000
      vertex  5.568656e+001 -4.937053e+001 -5.000000e+000
    endloop
  endfacet
  facet normal  1.416023e-001 -9.899237e-001  0.000000e+000
    outer loop
      vertex  5.568656e+001 -4.937053e+001 -5.000000e+000
      vertex  8.300988e+001 -4.546210e+001  5.000000e+000
      vertex  5.568656e+001 -4.937053e+001  5.000000e+000
    endloop
  endfacet
  facet normal  8.451013e-002 -9.964226e-001  0.000000e+000
    outer loop
      vertex  5.568656e+001 -4.937053e+001 -5.000000e+000
      vertex  5.568656e+001 -4.937053e+001  5.000000e+000
      vertex  2.801450e+001 -5.171749e+001 -5.000000e+000
    endloop
  endfacet
  facet normal  8.451013e-002 -9.964226e-001  0.000000e+000
    outer loop
      vertex  2.801450e+001 -5.171749e+001 -5.000000e+000
      vertex  5.568656e+001 -4.937053e+001  5.000000e+000
      vertex  2.801450e+001 -5.171749e+001  5.000000e+000
    endloop
  endfacet
  facet normal  2.790915e-002 -9.996104e-001  0.000000e+000
    outer loop
      vertex  2.801450e+001 -5.171749e+001 -5.000000e+000
      vertex  2.801450e+001 -5.171749e+001  5.000000e+000
      vertex -1.229417e-002 -5.250000e+001 -5.000000e+000
    endloop
  endfacet
  facet normal  2.790915e-002 -9.996104e-001  0.000000e+000
    outer loop
      vertex -1.229417e-002 -5.250000e+001 -5.000000e+000
      vertex  2.801450e+001 -5.171749e+001  5.000000e+000
      vertex -1.229417e-002 -5.250000e+001  5.000000e+000
    endloop
  endfacet
  facet normal  0.000000e+000 -9.999999e-001  0.000000e+000
    outer loop
      vertex -1.229417e-002 -5.250000e+001  5.000000e+000
      vertex -2.750000e+002 -5.250000e+001  5.000000e+000
      vertex -1.229417e-002 -5.250000e+001 -5.000000e+000
    endloop
  endfacet
  facet normal  0.000000e+000 -9.999999e-001  0.000000e+000
    outer loop
      vertex -1.229417e-002 -5.250000e+001 -5.000000e+000
      vertex -2.750000e+002 -5.250000e+001  5.000000e+000
      vertex -2.750000e+002 -5.250000e+001 -5.000000e+000
    endloop
  endfacet
  facet normal -1.000000e+000  0.000000e+000  0.000000e+000
    outer loop
      vertex -2.750000e+002  5.250000e+001  5.000000e+000
      vertex -2.750000e+002  5.250000e+001 -5.000000e+000
      vertex -2.750000e+002 -5.250000e+001  5.000000e+000
    endloop
  endfacet
  facet normal -1.000000e+000  0.000000e+000  0.000000e+000
    outer loop
      vertex -2.750000e+002 -5.250000e+001  5.000000e+000
      vertex -2.750000e+002  5.250000e+001 -5.000000e+000
      vertex -2.750000e+002 -5.250000e+001 -5.000000e+000
    endloop
  endfacet
endsolid CATIA STL
