solid CATIA STL
  facet normal  0.000000e+000  -0.000000e+000  1.000000e+000
    outer loop
      vertex -2.750000e+002 -2.000000e+001  5.000000e+000
      vertex  2.023343e+001 -2.000000e+001  5.000000e+000
      vertex  4.967960e+001 -1.948548e+001  5.000000e+000
    endloop
  endfacet
  facet normal  0.000000e+000  -0.000000e+000  9.999999e-001
    outer loop
      vertex -2.750000e+002 -2.000000e+001  5.000000e+000
      vertex  4.967960e+001 -1.948548e+001  5.000000e+000
      vertex  7.916493e+001 -1.791280e+001  5.000000e+000
    endloop
  endfacet
  facet normal  0.000000e+000  -0.000000e+000  9.999999e-001
    outer loop
      vertex -2.750000e+002 -2.000000e+001  5.000000e+000
      vertex  7.916493e+001 -1.791280e+001  5.000000e+000
      vertex  1.086232e+002 -1.512606e+001  5.000000e+000
    endloop
  endfacet
  facet normal  0.000000e+000  -0.000000e+000  1.000000e+000
    outer loop
      vertex -2.750000e+002 -2.000000e+001  5.000000e+000
      vertex  1.086232e+002 -1.512606e+001  5.000000e+000
      vertex  1.327659e+002 -1.164235e+001  5.000000e+000
    endloop
  endfacet
  facet normal  0.000000e+000  -0.000000e+000  1.000000e+000
    outer loop
      vertex -2.750000e+002 -2.000000e+001  5.000000e+000
      vertex  1.327659e+002 -1.164235e+001  5.000000e+000
      vertex  1.452319e+002 -9.279984e+000  5.000000e+000
    endloop
  endfacet
  facet normal  0.000000e+000  -0.000000e+000  1.000000e+000
    outer loop
      vertex -2.750000e+002 -2.000000e+001  5.000000e+000
      vertex  1.452319e+002 -9.279984e+000  5.000000e+000
      vertex  1.575937e+002 -6.472430e+000  5.000000e+000
    endloop
  endfacet
  facet normal  0.000000e+000  -0.000000e+000  1.000000e+000
    outer loop
      vertex -2.750000e+002 -2.000000e+001  5.000000e+000
      vertex  1.575937e+002 -6.472430e+000  5.000000e+000
      vertex  1.688614e+002 -3.455276e+000  5.000000e+000
    endloop
  endfacet
  facet normal  0.000000e+000  -0.000000e+000  1.000000e+000
    outer loop
      vertex -2.750000e+002 -2.000000e+001  5.000000e+000
      vertex  1.688614e+002 -3.455276e+000  5.000000e+000
      vertex  1.800000e+002  0.000000e+000  5.000000e+000
    endloop
  endfacet
  facet normal  0.000000e+000  -0.000000e+000  1.000000e+000
    outer loop
      vertex -2.750000e+002 -2.000000e+001  5.000000e+000
      vertex  1.800000e+002  0.000000e+000  5.000000e+000
      vertex  1.972123e+002  6.327842e+000  5.000000e+000
    endloop
  endfacet
  facet normal  0.000000e+000  -0.000000e+000  1.000000e+000
    outer loop
      vertex -2.750000e+002 -2.000000e+001  5.000000e+000
      vertex  1.972123e+002  6.327842e+000  5.000000e+000
      vertex  2.140225e+002  1.369143e+001  5.000000e+000
    endloop
  endfacet
  facet normal  0.000000e+000  -0.000000e+000  1.000000e+000
    outer loop
      vertex -2.750000e+002 -2.000000e+001  5.000000e+000
      vertex  2.140225e+002  1.369143e+001  5.000000e+000
      vertex  2.304041e+002  2.197083e+001  5.000000e+000
    endloop
  endfacet
  facet normal  0.000000e+000  -0.000000e+000  1.000000e+000
    outer loop
      vertex -2.750000e+002 -2.000000e+001  5.000000e+000
      vertex  2.304041e+002  2.197083e+001  5.000000e+000
      vertex  2.456821e+002  3.065187e+001  5.000000e+000
    endloop
  endfacet
  facet normal  0.000000e+000  -0.000000e+000  1.000000e+000
    outer loop
      vertex -2.750000e+002 -2.000000e+001  5.000000e+000
      vertex  2.456821e+002  3.065187e+001  5.000000e+000
      vertex  2.605482e+002  4.000298e+001  5.000000e+000
    endloop
  endfacet
  facet normal  0.000000e+000  -0.000000e+000  1.000000e+000
    outer loop
      vertex -2.750000e+002 -2.000000e+001  5.000000e+000
      vertex  2.605482e+002  4.000298e+001  5.000000e+000
      vertex  2.750000e+002  5.000000e+001  5.000000e+000
    endloop
  endfacet
  facet normal  0.000000e+000  0.000000e+000  1.000000e+000
    outer loop
      vertex -2.750000e+002 -2.000000e+001  5.000000e+000
      vertex  2.750000e+002  5.000000e+001  5.000000e+000
      vertex -2.750000e+002  5.000000e+001  5.000000e+000
    endloop
  endfacet
  facet normal  0.000000e+000  0.000000e+000 -1.000000e+000
    outer loop
      vertex -2.750000e+002 -2.000000e+001 -5.000000e+000
      vertex -2.750000e+002  5.000000e+001 -5.000000e+000
      vertex  2.750000e+002  5.000000e+001 -5.000000e+000
    endloop
  endfacet
  facet normal  0.000000e+000  0.000000e+000 -1.000000e+000
    outer loop
      vertex -2.750000e+002 -2.000000e+001 -5.000000e+000
      vertex  2.750000e+002  5.000000e+001 -5.000000e+000
      vertex  2.605482e+002  4.000298e+001 -5.000000e+000
    endloop
  endfacet
  facet normal  0.000000e+000  0.000000e+000 -1.000000e+000
    outer loop
      vertex -2.750000e+002 -2.000000e+001 -5.000000e+000
      vertex  2.605482e+002  4.000298e+001 -5.000000e+000
      vertex  2.456821e+002  3.065187e+001 -5.000000e+000
    endloop
  endfacet
  facet normal  0.000000e+000  0.000000e+000 -1.000000e+000
    outer loop
      vertex -2.750000e+002 -2.000000e+001 -5.000000e+000
      vertex  2.456821e+002  3.065187e+001 -5.000000e+000
      vertex  2.304041e+002  2.197083e+001 -5.000000e+000
    endloop
  endfacet
  facet normal  0.000000e+000  0.000000e+000 -1.000000e+000
    outer loop
      vertex -2.750000e+002 -2.000000e+001 -5.000000e+000
      vertex  2.304041e+002  2.197083e+001 -5.000000e+000
      vertex  2.140225e+002  1.369143e+001 -5.000000e+000
    endloop
  endfacet
  facet normal  0.000000e+000  0.000000e+000 -1.000000e+000
    outer loop
      vertex -2.750000e+002 -2.000000e+001 -5.000000e+000
      vertex  2.140225e+002  1.369143e+001 -5.000000e+000
      vertex  1.972123e+002  6.327842e+000 -5.000000e+000
    endloop
  endfacet
  facet normal  0.000000e+000  0.000000e+000 -9.999999e-001
    outer loop
      vertex -2.750000e+002 -2.000000e+001 -5.000000e+000
      vertex  1.972123e+002  6.327842e+000 -5.000000e+000
      vertex  1.800000e+002  0.000000e+000 -5.000000e+000
    endloop
  endfacet
  facet normal  0.000000e+000  0.000000e+000 -1.000000e+000
    outer loop
      vertex -2.750000e+002 -2.000000e+001 -5.000000e+000
      vertex  1.800000e+002  0.000000e+000 -5.000000e+000
      vertex  1.688614e+002 -3.455276e+000 -5.000000e+000
    endloop
  endfacet
  facet normal  0.000000e+000  0.000000e+000 -1.000000e+000
    outer loop
      vertex -2.750000e+002 -2.000000e+001 -5.000000e+000
      vertex  1.688614e+002 -3.455276e+000 -5.000000e+000
      vertex  1.575937e+002 -6.472430e+000 -5.000000e+000
    endloop
  endfacet
  facet normal  0.000000e+000  0.000000e+000 -1.000000e+000
    outer loop
      vertex -2.750000e+002 -2.000000e+001 -5.000000e+000
      vertex  1.575937e+002 -6.472430e+000 -5.000000e+000
      vertex  1.452319e+002 -9.279984e+000 -5.000000e+000
    endloop
  endfacet
  facet normal  0.000000e+000  0.000000e+000 -1.000000e+000
    outer loop
      vertex -2.750000e+002 -2.000000e+001 -5.000000e+000
      vertex  1.452319e+002 -9.279984e+000 -5.000000e+000
      vertex  1.327659e+002 -1.164235e+001 -5.000000e+000
    endloop
  endfacet
  facet normal  0.000000e+000  0.000000e+000 -1.000000e+000
    outer loop
      vertex -2.750000e+002 -2.000000e+001 -5.000000e+000
      vertex  1.327659e+002 -1.164235e+001 -5.000000e+000
      vertex  1.086232e+002 -1.512606e+001 -5.000000e+000
    endloop
  endfacet
  facet normal  0.000000e+000  0.000000e+000 -1.000000e+000
    outer loop
      vertex -2.750000e+002 -2.000000e+001 -5.000000e+000
      vertex  1.086232e+002 -1.512606e+001 -5.000000e+000
      vertex  7.916493e+001 -1.791280e+001 -5.000000e+000
    endloop
  endfacet
  facet normal  0.000000e+000  0.000000e+000 -9.999999e-001
    outer loop
      vertex -2.750000e+002 -2.000000e+001 -5.000000e+000
      vertex  7.916493e+001 -1.791280e+001 -5.000000e+000
      vertex  4.967960e+001 -1.948548e+001 -5.000000e+000
    endloop
  endfacet
  facet normal  0.000000e+000  0.000000e+000 -1.000000e+000
    outer loop
      vertex -2.750000e+002 -2.000000e+001 -5.000000e+000
      vertex  4.967960e+001 -1.948548e+001 -5.000000e+000
      vertex  2.023343e+001 -2.000000e+001 -5.000000e+000
    endloop
  endfacet
  facet normal  0.000000e+000  1.000000e+000  0.000000e+000
    outer loop
      vertex -2.750000e+002  5.000000e+001  5.000000e+000
      vertex  2.750000e+002  5.000000e+001  5.000000e+000
      vertex -2.750000e+002  5.000000e+001 -5.000000e+000
    endloop
  endfacet
  facet normal  0.000000e+000  1.000000e+000  0.000000e+000
    outer loop
      vertex -2.750000e+002  5.000000e+001 -5.000000e+000
      vertex  2.750000e+002  5.000000e+001  5.000000e+000
      vertex  2.750000e+002  5.000000e+001 -5.000000e+000
    endloop
  endfacet
  facet normal  5.688992e-001 -8.224072e-001  0.000000e+000
    outer loop
      vertex  2.750000e+002  5.000000e+001 -5.000000e+000
      vertex  2.750000e+002  5.000000e+001  5.000000e+000
      vertex  2.605482e+002  4.000298e+001 -5.000000e+000
    endloop
  endfacet
  facet normal  5.688992e-001 -8.224072e-001  0.000000e+000
    outer loop
      vertex  2.605482e+002  4.000298e+001 -5.000000e+000
      vertex  2.750000e+002  5.000000e+001  5.000000e+000
      vertex  2.605482e+002  4.000298e+001  5.000000e+000
    endloop
  endfacet
  facet normal  5.324463e-001 -8.464638e-001  0.000000e+000
    outer loop
      vertex  2.605482e+002  4.000298e+001 -5.000000e+000
      vertex  2.605482e+002  4.000298e+001  5.000000e+000
      vertex  2.456821e+002  3.065187e+001 -5.000000e+000
    endloop
  endfacet
  facet normal  5.324463e-001 -8.464638e-001  0.000000e+000
    outer loop
      vertex  2.456821e+002  3.065187e+001 -5.000000e+000
      vertex  2.605482e+002  4.000298e+001  5.000000e+000
      vertex  2.456821e+002  3.065187e+001  5.000000e+000
    endloop
  endfacet
  facet normal  4.940240e-001 -8.694484e-001  0.000000e+000
    outer loop
      vertex  2.456821e+002  3.065187e+001 -5.000000e+000
      vertex  2.456821e+002  3.065187e+001  5.000000e+000
      vertex  2.304041e+002  2.197083e+001 -5.000000e+000
    endloop
  endfacet
  facet normal  4.940240e-001 -8.694484e-001  0.000000e+000
    outer loop
      vertex  2.304041e+002  2.197083e+001 -5.000000e+000
      vertex  2.456821e+002  3.065187e+001  5.000000e+000
      vertex  2.304041e+002  2.197083e+001  5.000000e+000
    endloop
  endfacet
  facet normal  4.510705e-001 -8.924884e-001  0.000000e+000
    outer loop
      vertex  2.304041e+002  2.197083e+001 -5.000000e+000
      vertex  2.304041e+002  2.197083e+001  5.000000e+000
      vertex  2.140225e+002  1.369143e+001 -5.000000e+000
    endloop
  endfacet
  facet normal  4.510705e-001 -8.924884e-001  0.000000e+000
    outer loop
      vertex  2.140225e+002  1.369143e+001 -5.000000e+000
      vertex  2.304041e+002  2.197083e+001  5.000000e+000
      vertex  2.140225e+002  1.369143e+001  5.000000e+000
    endloop
  endfacet
  facet normal  4.012368e-001 -9.159744e-001  0.000000e+000
    outer loop
      vertex  2.140225e+002  1.369143e+001 -5.000000e+000
      vertex  2.140225e+002  1.369143e+001  5.000000e+000
      vertex  1.972123e+002  6.327842e+000 -5.000000e+000
    endloop
  endfacet
  facet normal  4.012368e-001 -9.159744e-001  0.000000e+000
    outer loop
      vertex  1.972123e+002  6.327842e+000 -5.000000e+000
      vertex  2.140225e+002  1.369143e+001  5.000000e+000
      vertex  1.972123e+002  6.327842e+000  5.000000e+000
    endloop
  endfacet
  facet normal  3.450554e-001 -9.385823e-001  0.000000e+000
    outer loop
      vertex  1.972123e+002  6.327842e+000 -5.000000e+000
      vertex  1.972123e+002  6.327842e+000  5.000000e+000
      vertex  1.800000e+002  0.000000e+000 -5.000000e+000
    endloop
  endfacet
  facet normal  3.450554e-001 -9.385823e-001  0.000000e+000
    outer loop
      vertex  1.800000e+002  0.000000e+000 -5.000000e+000
      vertex  1.972123e+002  6.327842e+000  5.000000e+000
      vertex  1.800000e+002  0.000000e+000  5.000000e+000
    endloop
  endfacet
  facet normal  2.962792e-001 -9.551013e-001  0.000000e+000
    outer loop
      vertex  1.800000e+002  0.000000e+000 -5.000000e+000
      vertex  1.800000e+002  0.000000e+000  5.000000e+000
      vertex  1.688614e+002 -3.455276e+000 -5.000000e+000
    endloop
  endfacet
  facet normal  2.962792e-001 -9.551013e-001  0.000000e+000
    outer loop
      vertex  1.688614e+002 -3.455276e+000 -5.000000e+000
      vertex  1.800000e+002  0.000000e+000  5.000000e+000
      vertex  1.688614e+002 -3.455276e+000  5.000000e+000
    endloop
  endfacet
  facet normal  2.586573e-001 -9.659691e-001  0.000000e+000
    outer loop
      vertex  1.688614e+002 -3.455276e+000 -5.000000e+000
      vertex  1.688614e+002 -3.455276e+000  5.000000e+000
      vertex  1.575937e+002 -6.472430e+000 -5.000000e+000
    endloop
  endfacet
  facet normal  2.586573e-001 -9.659691e-001  0.000000e+000
    outer loop
      vertex  1.575937e+002 -6.472430e+000 -5.000000e+000
      vertex  1.688614e+002 -3.455276e+000  5.000000e+000
      vertex  1.575937e+002 -6.472430e+000  5.000000e+000
    endloop
  endfacet
  facet normal  2.214762e-001 -9.751657e-001  0.000000e+000
    outer loop
      vertex  1.575937e+002 -6.472430e+000 -5.000000e+000
      vertex  1.575937e+002 -6.472430e+000  5.000000e+000
      vertex  1.452319e+002 -9.279984e+000 -5.000000e+000
    endloop
  endfacet
  facet normal  2.214762e-001 -9.751657e-001  0.000000e+000
    outer loop
      vertex  1.452319e+002 -9.279984e+000 -5.000000e+000
      vertex  1.575937e+002 -6.472430e+000  5.000000e+000
      vertex  1.452319e+002 -9.279984e+000  5.000000e+000
    endloop
  endfacet
  facet normal  1.861906e-001 -9.825137e-001  0.000000e+000
    outer loop
      vertex  1.452319e+002 -9.279984e+000 -5.000000e+000
      vertex  1.452319e+002 -9.279984e+000  5.000000e+000
      vertex  1.327659e+002 -1.164235e+001 -5.000000e+000
    endloop
  endfacet
  facet normal  1.861906e-001 -9.825137e-001  0.000000e+000
    outer loop
      vertex  1.327659e+002 -1.164235e+001 -5.000000e+000
      vertex  1.452319e+002 -9.279984e+000  5.000000e+000
      vertex  1.327659e+002 -1.164235e+001  5.000000e+000
    endloop
  endfacet
  facet normal  1.428173e-001 -9.897490e-001  0.000000e+000
    outer loop
      vertex  1.327659e+002 -1.164235e+001 -5.000000e+000
      vertex  1.327659e+002 -1.164235e+001  5.000000e+000
      vertex  1.086232e+002 -1.512606e+001 -5.000000e+000
    endloop
  endfacet
  facet normal  1.428173e-001 -9.897490e-001  0.000000e+000
    outer loop
      vertex  1.086232e+002 -1.512606e+001 -5.000000e+000
      vertex  1.327659e+002 -1.164235e+001  5.000000e+000
      vertex  1.086232e+002 -1.512606e+001  5.000000e+000
    endloop
  endfacet
  facet normal  9.417909e-002 -9.955553e-001  0.000000e+000
    outer loop
      vertex  1.086232e+002 -1.512606e+001 -5.000000e+000
      vertex  1.086232e+002 -1.512606e+001  5.000000e+000
      vertex  7.916493e+001 -1.791280e+001 -5.000000e+000
    endloop
  endfacet
  facet normal  9.417909e-002 -9.955553e-001  0.000000e+000
    outer loop
      vertex  7.916493e+001 -1.791280e+001 -5.000000e+000
      vertex  1.086232e+002 -1.512606e+001  5.000000e+000
      vertex  7.916493e+001 -1.791280e+001  5.000000e+000
    endloop
  endfacet
  facet normal  5.326192e-002 -9.985806e-001  0.000000e+000
    outer loop
      vertex  7.916493e+001 -1.791280e+001 -5.000000e+000
      vertex  7.916493e+001 -1.791280e+001  5.000000e+000
      vertex  4.967960e+001 -1.948548e+001 -5.000000e+000
    endloop
  endfacet
  facet normal  5.326192e-002 -9.985806e-001  0.000000e+000
    outer loop
      vertex  4.967960e+001 -1.948548e+001 -5.000000e+000
      vertex  7.916493e+001 -1.791280e+001  5.000000e+000
      vertex  4.967960e+001 -1.948548e+001  5.000000e+000
    endloop
  endfacet
  facet normal  1.747072e-002 -9.998474e-001  0.000000e+000
    outer loop
      vertex  4.967960e+001 -1.948548e+001 -5.000000e+000
      vertex  4.967960e+001 -1.948548e+001  5.000000e+000
      vertex  2.023343e+001 -2.000000e+001 -5.000000e+000
    endloop
  endfacet
  facet normal  1.747072e-002 -9.998474e-001  0.000000e+000
    outer loop
      vertex  2.023343e+001 -2.000000e+001 -5.000000e+000
      vertex  4.967960e+001 -1.948548e+001  5.000000e+000
      vertex  2.023343e+001 -2.000000e+001  5.000000e+000
    endloop
  endfacet
  facet normal  0.000000e+000 -1.000000e+000  0.000000e+000
    outer loop
      vertex  2.023343e+001 -2.000000e+001  5.000000e+000
      vertex -2.750000e+002 -2.000000e+001  5.000000e+000
      vertex  2.023343e+001 -2.000000e+001 -5.000000e+000
    endloop
  endfacet
  facet normal  0.000000e+000 -1.000000e+000  0.000000e+000
    outer loop
      vertex  2.023343e+001 -2.000000e+001 -5.000000e+000
      vertex -2.750000e+002 -2.000000e+001  5.000000e+000
      vertex -2.750000e+002 -2.000000e+001 -5.000000e+000
    endloop
  endfacet
  facet normal -1.000000e+000  0.000000e+000  0.000000e+000
    outer loop
      vertex -2.750000e+002  5.000000e+001  5.000000e+000
      vertex -2.750000e+002  5.000000e+001 -5.000000e+000
      vertex -2.750000e+002 -2.000000e+001  5.000000e+000
    endloop
  endfacet
  facet normal -1.000000e+000  0.000000e+000  0.000000e+000
    outer loop
      vertex -2.750000e+002 -2.000000e+001  5.000000e+000
      vertex -2.750000e+002  5.000000e+001 -5.000000e+000
      vertex -2.750000e+002 -2.000000e+001 -5.000000e+000
    endloop
  endfacet
endsolid CATIA STL
