solid CATIA STL
  facet normal -1.000000e+000  -0.000000e+000  0.000000e+000
    outer loop
      vertex  6.397918e+001 -4.123176e+001  5.000000e+000
      vertex  6.397918e+001  5.048491e+001  5.000000e+000
      vertex  6.397918e+001 -4.123176e+001 -5.000000e+000
    endloop
  endfacet
  facet normal -1.000000e+000  0.000000e+000  0.000000e+000
    outer loop
      vertex  6.397918e+001 -4.123176e+001 -5.000000e+000
      vertex  6.397918e+001  5.048491e+001  5.000000e+000
      vertex  6.397918e+001  5.048491e+001 -5.000000e+000
    endloop
  endfacet
  facet normal  1.000000e+000  -0.000000e+000  0.000000e+000
    outer loop
      vertex -6.397918e+001  5.048491e+001  5.000000e+000
      vertex -6.397918e+001 -4.123176e+001  5.000000e+000
      vertex -6.397918e+001  5.048491e+001 -5.000000e+000
    endloop
  endfacet
  facet normal  1.000000e+000  0.000000e+000  0.000000e+000
    outer loop
      vertex -6.397918e+001  5.048491e+001 -5.000000e+000
      vertex -6.397918e+001 -4.123176e+001  5.000000e+000
      vertex -6.397918e+001 -4.123176e+001 -5.000000e+000
    endloop
  endfacet
  facet normal  0.000000e+000  0.000000e+000 -1.000000e+000
    outer loop
      vertex -1.000000e+002 -6.749947e+001 -5.000000e+000
      vertex -1.000000e+002  2.500530e+000 -5.000000e+000
      vertex -6.397918e+001  5.048491e+001 -5.000000e+000
    endloop
  endfacet
  facet normal  0.000000e+000  -0.000000e+000 -1.000000e+000
    outer loop
      vertex -1.000000e+002 -6.749947e+001 -5.000000e+000
      vertex -6.397918e+001  5.048491e+001 -5.000000e+000
      vertex -6.397918e+001 -4.123176e+001 -5.000000e+000
    endloop
  endfacet
  facet normal  0.000000e+000  -0.000000e+000 -1.000000e+000
    outer loop
      vertex -1.000000e+002 -6.749947e+001 -5.000000e+000
      vertex -6.397918e+001 -4.123176e+001 -5.000000e+000
      vertex  0.000000e+000 -6.171509e+001 -5.000000e+000
    endloop
  endfacet
  facet normal  0.000000e+000  -0.000000e+000 -1.000000e+000
    outer loop
      vertex -1.000000e+002 -6.749947e+001 -5.000000e+000
      vertex  0.000000e+000 -6.171509e+001 -5.000000e+000
      vertex  1.000000e+002 -6.749947e+001 -5.000000e+000
    endloop
  endfacet
  facet normal  -0.000000e+000  0.000000e+000 -9.999999e-001
    outer loop
      vertex -1.000000e+002 -6.749947e+001 -5.000000e+000
      vertex  1.000000e+002 -6.749947e+001 -5.000000e+000
      vertex  0.000000e+000 -9.951509e+001 -5.000000e+000
    endloop
  endfacet
  facet normal  0.000000e+000  -0.000000e+000 -1.000000e+000
    outer loop
      vertex  0.000000e+000 -6.171509e+001 -5.000000e+000
      vertex  6.397918e+001 -4.123176e+001 -5.000000e+000
      vertex  1.000000e+002 -6.749947e+001 -5.000000e+000
    endloop
  endfacet
  facet normal  0.000000e+000  0.000000e+000 -1.000000e+000
    outer loop
      vertex  1.000000e+002 -6.749947e+001 -5.000000e+000
      vertex  6.397918e+001 -4.123176e+001 -5.000000e+000
      vertex  6.397918e+001  5.048491e+001 -5.000000e+000
    endloop
  endfacet
  facet normal  0.000000e+000  0.000000e+000 -1.000000e+000
    outer loop
      vertex  1.000000e+002 -6.749947e+001 -5.000000e+000
      vertex  6.397918e+001  5.048491e+001 -5.000000e+000
      vertex  1.000000e+002  2.500530e+000 -5.000000e+000
    endloop
  endfacet
  facet normal  0.000000e+000  -0.000000e+000  9.999999e-001
    outer loop
      vertex -1.000000e+002 -6.749947e+001  5.000000e+000
      vertex  0.000000e+000 -9.951509e+001  5.000000e+000
      vertex  1.000000e+002 -6.749947e+001  5.000000e+000
    endloop
  endfacet
  facet normal  0.000000e+000  0.000000e+000  1.000000e+000
    outer loop
      vertex -1.000000e+002 -6.749947e+001  5.000000e+000
      vertex  1.000000e+002 -6.749947e+001  5.000000e+000
      vertex  0.000000e+000 -6.171509e+001  5.000000e+000
    endloop
  endfacet
  facet normal  0.000000e+000  0.000000e+000  1.000000e+000
    outer loop
      vertex -1.000000e+002 -6.749947e+001  5.000000e+000
      vertex  0.000000e+000 -6.171509e+001  5.000000e+000
      vertex -6.397918e+001 -4.123176e+001  5.000000e+000
    endloop
  endfacet
  facet normal  0.000000e+000  -0.000000e+000  1.000000e+000
    outer loop
      vertex -1.000000e+002 -6.749947e+001  5.000000e+000
      vertex -6.397918e+001 -4.123176e+001  5.000000e+000
      vertex -6.397918e+001  5.048491e+001  5.000000e+000
    endloop
  endfacet
  facet normal  0.000000e+000  0.000000e+000  1.000000e+000
    outer loop
      vertex -1.000000e+002 -6.749947e+001  5.000000e+000
      vertex -6.397918e+001  5.048491e+001  5.000000e+000
      vertex -1.000000e+002  2.500530e+000  5.000000e+000
    endloop
  endfacet
  facet normal  0.000000e+000  0.000000e+000  1.000000e+000
    outer loop
      vertex  1.000000e+002  2.500530e+000  5.000000e+000
      vertex  6.397918e+001  5.048491e+001  5.000000e+000
      vertex  1.000000e+002 -6.749947e+001  5.000000e+000
    endloop
  endfacet
  facet normal  0.000000e+000  0.000000e+000  1.000000e+000
    outer loop
      vertex  1.000000e+002 -6.749947e+001  5.000000e+000
      vertex  6.397918e+001  5.048491e+001  5.000000e+000
      vertex  6.397918e+001 -4.123176e+001  5.000000e+000
    endloop
  endfacet
  facet normal  0.000000e+000  0.000000e+000  1.000000e+000
    outer loop
      vertex  1.000000e+002 -6.749947e+001  5.000000e+000
      vertex  6.397918e+001 -4.123176e+001  5.000000e+000
      vertex  0.000000e+000 -6.171509e+001  5.000000e+000
    endloop
  endfacet
  facet normal -3.049107e-001  9.523810e-001  0.000000e+000
    outer loop
      vertex  0.000000e+000 -6.171509e+001  5.000000e+000
      vertex  6.397918e+001 -4.123176e+001  5.000000e+000
      vertex  0.000000e+000 -6.171509e+001 -5.000000e+000
    endloop
  endfacet
  facet normal -3.049107e-001  9.523810e-001  0.000000e+000
    outer loop
      vertex  0.000000e+000 -6.171509e+001 -5.000000e+000
      vertex  6.397918e+001 -4.123176e+001  5.000000e+000
      vertex  6.397918e+001 -4.123176e+001 -5.000000e+000
    endloop
  endfacet
  facet normal  3.049107e-001  9.523810e-001  0.000000e+000
    outer loop
      vertex -6.397918e+001 -4.123176e+001  5.000000e+000
      vertex  0.000000e+000 -6.171509e+001  5.000000e+000
      vertex -6.397918e+001 -4.123176e+001 -5.000000e+000
    endloop
  endfacet
  facet normal  3.049107e-001  9.523810e-001  0.000000e+000
    outer loop
      vertex -6.397918e+001 -4.123176e+001 -5.000000e+000
      vertex  0.000000e+000 -6.171509e+001  5.000000e+000
      vertex  0.000000e+000 -6.171509e+001 -5.000000e+000
    endloop
  endfacet
  facet normal  7.997397e-001  6.003470e-001  0.000000e+000
    outer loop
      vertex  6.397918e+001  5.048491e+001  5.000000e+000
      vertex  1.000000e+002  2.500530e+000  5.000000e+000
      vertex  6.397918e+001  5.048491e+001 -5.000000e+000
    endloop
  endfacet
  facet normal  7.997397e-001  6.003470e-001  0.000000e+000
    outer loop
      vertex  6.397918e+001  5.048491e+001 -5.000000e+000
      vertex  1.000000e+002  2.500530e+000  5.000000e+000
      vertex  1.000000e+002  2.500530e+000 -5.000000e+000
    endloop
  endfacet
  facet normal -7.997397e-001  6.003470e-001  0.000000e+000
    outer loop
      vertex -6.397918e+001  5.048491e+001  5.000000e+000
      vertex -6.397918e+001  5.048491e+001 -5.000000e+000
      vertex -1.000000e+002  2.500530e+000  5.000000e+000
    endloop
  endfacet
  facet normal -7.997397e-001  6.003470e-001  0.000000e+000
    outer loop
      vertex -1.000000e+002  2.500530e+000  5.000000e+000
      vertex -6.397918e+001  5.048491e+001 -5.000000e+000
      vertex -1.000000e+002  2.500530e+000 -5.000000e+000
    endloop
  endfacet
  facet normal  1.000000e+000  -0.000000e+000  0.000000e+000
    outer loop
      vertex  1.000000e+002  2.500530e+000  5.000000e+000
      vertex  1.000000e+002 -6.749947e+001  5.000000e+000
      vertex  1.000000e+002  2.500530e+000 -5.000000e+000
    endloop
  endfacet
  facet normal  1.000000e+000  0.000000e+000  0.000000e+000
    outer loop
      vertex  1.000000e+002  2.500530e+000 -5.000000e+000
      vertex  1.000000e+002 -6.749947e+001  5.000000e+000
      vertex  1.000000e+002 -6.749947e+001 -5.000000e+000
    endloop
  endfacet
  facet normal  3.049107e-001 -9.523810e-001  0.000000e+000
    outer loop
      vertex  1.000000e+002 -6.749947e+001  5.000000e+000
      vertex  0.000000e+000 -9.951509e+001  5.000000e+000
      vertex  1.000000e+002 -6.749947e+001 -5.000000e+000
    endloop
  endfacet
  facet normal  3.049107e-001 -9.523810e-001  0.000000e+000
    outer loop
      vertex  1.000000e+002 -6.749947e+001 -5.000000e+000
      vertex  0.000000e+000 -9.951509e+001  5.000000e+000
      vertex  0.000000e+000 -9.951509e+001 -5.000000e+000
    endloop
  endfacet
  facet normal -3.049107e-001 -9.523810e-001  0.000000e+000
    outer loop
      vertex -1.000000e+002 -6.749947e+001  5.000000e+000
      vertex -1.000000e+002 -6.749947e+001 -5.000000e+000
      vertex  0.000000e+000 -9.951509e+001  5.000000e+000
    endloop
  endfacet
  facet normal -3.049107e-001 -9.523810e-001  -0.000000e+000
    outer loop
      vertex  0.000000e+000 -9.951509e+001  5.000000e+000
      vertex -1.000000e+002 -6.749947e+001 -5.000000e+000
      vertex  0.000000e+000 -9.951509e+001 -5.000000e+000
    endloop
  endfacet
  facet normal -1.000000e+000  0.000000e+000  0.000000e+000
    outer loop
      vertex -1.000000e+002  2.500530e+000  5.000000e+000
      vertex -1.000000e+002  2.500530e+000 -5.000000e+000
      vertex -1.000000e+002 -6.749947e+001  5.000000e+000
    endloop
  endfacet
  facet normal -1.000000e+000  0.000000e+000  0.000000e+000
    outer loop
      vertex -1.000000e+002 -6.749947e+001  5.000000e+000
      vertex -1.000000e+002  2.500530e+000 -5.000000e+000
      vertex -1.000000e+002 -6.749947e+001 -5.000000e+000
    endloop
  endfacet
endsolid CATIA STL
